<svg xmlns="http://www.w3.org/2000/svg" width="20" height="20" viewBox="0 0 20 20" fill="none">
  <g opacity="0.75">
    <path fill-rule="evenodd" clip-rule="evenodd" d="M2.29297 16.064C2.54457 16.1852 2.82257 16.25 3.10717 16.25H16.8746C17.0802 16.25 17.2824 16.2162 17.4738 16.1516L12.0418 10.4726C11.759 10.744 11.5064 10.9862 11.2956 11.1876C10.5708 11.881 9.42837 11.881 8.70357 11.1876C8.45377 10.9488 8.14397 10.6516 7.79457 10.3162L2.29297 16.064Z" fill="white"/>
    <path fill-rule="evenodd" clip-rule="evenodd" d="M18.3196 4.43005C17.5202 5.20065 14.904 7.72245 12.9434 9.60685L18.4608 15.3751C18.6482 15.0781 18.7498 14.7319 18.7498 14.3751V5.62505C18.7498 5.18705 18.5966 4.76485 18.3196 4.43005Z" fill="white"/>
    <path fill-rule="evenodd" clip-rule="evenodd" d="M1.67122 4.41956C1.38882 4.75596 1.23242 5.18236 1.23242 5.62496V14.375C1.23242 14.6548 1.29502 14.9282 1.41242 15.1764L6.89342 9.44995C4.97562 7.60576 2.50582 5.22456 1.67122 4.41956Z" fill="white"/>
    <path fill-rule="evenodd" clip-rule="evenodd" d="M2.80469 3.7748L9.56829 10.2844C9.80989 10.5156 10.1907 10.5156 10.4323 10.2844C11.9859 8.7982 15.8195 5.1044 17.1959 3.7776C17.0907 3.7594 16.9835 3.75 16.8753 3.75H3.10789C3.00569 3.75 2.90429 3.7584 2.80469 3.7748Z" fill="white"/>
  </g>
</svg>