<svg xmlns="http://www.w3.org/2000/svg" width="20" height="20" viewBox="0 0 20 20" fill="none">
  <g opacity="0.75" clip-path="url(#clip0_126_1747)">
    <path d="M17.2328 13.92C16.0246 12.8866 14.7984 12.2607 13.605 13.2925L12.8925 13.9161C12.3711 14.3688 11.4017 16.4839 7.65383 12.1725C3.90671 7.86653 6.13656 7.19609 6.65871 6.74731L7.3752 6.12292C8.56232 5.08877 8.11432 3.78692 7.25812 2.44682L6.74144 1.63511C5.88134 0.298138 4.94476 -0.579911 3.75451 0.452674L3.11139 1.01463C2.58534 1.39785 1.1149 2.6435 0.758219 5.00994C0.328951 7.84936 1.6831 11.1009 4.78554 14.6685C7.88407 18.2377 10.9178 20.0304 13.7916 19.9992C16.1799 19.9735 17.6222 18.6919 18.0733 18.2259L18.7188 17.6632C19.9059 16.6314 19.1684 15.5809 17.9594 14.5452L17.2328 13.92Z" fill="white"/>
  </g>
  <defs>
    <clipPath id="clip0_126_1747">
      <rect width="20" height="20" fill="white"/>
    </clipPath>
  </defs>
</svg>