<svg xmlns="http://www.w3.org/2000/svg" width="42" height="42" viewBox="0 0 42 42" fill="none">
  <path d="M21 0C13.2806 0 7 6.28056 7 14C7 16.3174 7.57939 18.6151 8.68082 20.6531L20.2344 41.5488C20.3882 41.8274 20.6813 42 21 42C21.3187 42 21.6118 41.8274 21.7656 41.5488L33.3235 20.6462C34.4207 18.6151 35.0001 16.3173 35.0001 13.9999C35.0001 6.28056 28.7195 0 21 0ZM21 21C17.1403 21 14.0001 17.8598 14.0001 14C14.0001 10.1403 17.1403 7.00005 21 7.00005C24.8598 7.00005 28 10.1403 28 14C28 17.8598 24.8598 21 21 21Z" fill="#E5084A"/>
</svg>