<svg xmlns="http://www.w3.org/2000/svg" width="50" height="50" viewBox="0 0 50 50" fill="none">
  <path fill-rule="evenodd" clip-rule="evenodd" d="M5.7334 40.16C6.3624 40.463 7.0574 40.625 7.7689 40.625H42.1874C42.7014 40.625 43.2069 40.5405 43.6854 40.379L30.1054 26.1815C29.3984 26.86 28.7669 27.4655 28.2399 27.969C26.4279 29.7025 23.5719 29.7025 21.7599 27.969C21.1354 27.372 20.3609 26.629 19.4874 25.7905L5.7334 40.16Z" fill="#E5084A"/>
  <path fill-rule="evenodd" clip-rule="evenodd" d="M45.7989 11.075C43.8004 13.0015 37.2599 19.306 32.3584 24.017L46.1519 38.4375C46.6204 37.695 46.8744 36.8295 46.8744 35.9375V14.0625C46.8744 12.9675 46.4914 11.912 45.7989 11.075Z" fill="#E5084A"/>
  <path fill-rule="evenodd" clip-rule="evenodd" d="M4.17805 11.049C3.47205 11.89 3.08105 12.956 3.08105 14.0624V35.9374C3.08105 36.6369 3.23755 37.3204 3.53105 37.9409L17.2336 23.6249C12.4391 19.0144 6.26455 13.0615 4.17805 11.049Z" fill="#E5084A"/>
  <path fill-rule="evenodd" clip-rule="evenodd" d="M7.01074 9.437L23.9197 25.711C24.5237 26.289 25.4757 26.289 26.0797 25.711C29.9637 21.9955 39.5477 12.761 42.9887 9.444C42.7257 9.3985 42.4577 9.375 42.1872 9.375H7.76874C7.51324 9.375 7.25974 9.396 7.01074 9.437Z" fill="#E5084A"/>
</svg>