<svg xmlns="http://www.w3.org/2000/svg" width="40" height="40" viewBox="0 0 40 40" fill="none">
  <g clip-path="url(#clip0_126_1688)">
    <path d="M34.4645 27.84C32.0481 25.7733 29.5959 24.5214 27.2091 26.585L25.784 27.8322C24.7412 28.7375 22.8025 32.9678 15.3067 24.345C7.81244 15.7331 12.2721 14.3922 13.3164 13.4946L14.7494 12.2458C17.1237 10.1775 16.2277 7.57384 14.5153 4.89364L13.4819 3.27023C11.7617 0.596276 9.88854 -1.15982 7.50805 0.905349L6.2218 2.02925C5.16971 2.79569 2.22883 5.28701 1.51546 10.0199C0.656925 15.6987 3.36522 22.2017 9.5701 29.337C15.7672 36.4753 21.8347 40.0609 27.5822 39.9984C32.3588 39.9469 35.2435 37.3838 36.1457 36.4519L37.4366 35.3264C39.8109 33.2628 38.3358 31.1617 35.9178 29.0903L34.4645 27.84Z" fill="#E5084A"/>
  </g>
  <defs>
    <clipPath id="clip0_126_1688">
      <rect width="40" height="40" fill="white"/>
    </clipPath>
  </defs>
</svg>