<svg xmlns="http://www.w3.org/2000/svg" width="15" height="14" viewBox="0 0 15 14" fill="none">
  <path d="M14.8406 5.82501L11.5537 8.96331L12.3299 13.3958C12.3637 13.5896 12.2824 13.7855 12.1199 13.9013C12.0281 13.9669 11.9188 14 11.8096 14C11.7257 14 11.6413 13.9804 11.5642 13.9406L7.5 11.8478L3.4363 13.94C3.259 14.032 3.04318 14.0171 2.88065 13.9008C2.71813 13.785 2.63686 13.5891 2.67063 13.3953L3.44686 8.9628L0.159386 5.82501C0.0158556 5.68753 -0.0363851 5.48182 0.0258816 5.29524C0.0881483 5.10866 0.253314 4.97169 0.45225 4.94327L4.99508 4.29721L7.02667 0.264756C7.2045 -0.0882519 7.7955 -0.0882519 7.97333 0.264756L10.0049 4.29721L14.5477 4.94327C14.7467 4.97169 14.9119 5.10814 14.9741 5.29524C15.0364 5.48234 14.9841 5.68701 14.8406 5.82501Z" fill="#E5084A"/>
</svg>