<svg xmlns="http://www.w3.org/2000/svg" width="20" height="16" viewBox="0 0 20 16" fill="none">
  <path d="M17.0715 1.96451C16.8428 1.76923 16.4717 1.76923 16.2429 1.96451C16.0141 2.15979 16.0141 2.47647 16.2429 2.67178C19.685 5.60973 19.685 10.3902 16.2429 13.3282C16.0141 13.5235 16.0141 13.8401 16.2429 14.0355C16.3573 14.1331 16.5073 14.182 16.6572 14.182C16.8071 14.182 16.9571 14.1331 17.0715 14.0355C18.9603 12.4233 20.0004 10.2799 20.0004 7.99997C20.0004 5.72005 18.9603 3.57664 17.0715 1.96451Z" fill="white"/>
  <path d="M15.2962 3.47965C15.0674 3.28437 14.6963 3.28437 14.4675 3.47965C14.2387 3.67496 14.2387 3.99161 14.4675 4.18692C15.6608 5.20543 16.318 6.55959 16.318 7.99997C16.318 9.44032 15.6608 10.7945 14.4675 11.813C14.2387 12.0082 14.2387 12.3249 14.4675 12.5202C14.5819 12.6179 14.7319 12.6667 14.8818 12.6667C15.0317 12.6667 15.1817 12.6179 15.2961 12.5202C16.7108 11.3128 17.4899 9.70752 17.4899 7.99997C17.4899 6.2924 16.7108 4.68708 15.2962 3.47965Z" fill="white"/>
  <path d="M12.2644 0.129346C11.8241 -0.0787041 11.2651 -0.0341934 10.7304 0.251475L4.18324 3.75005H2.15492C0.96668 3.75005 0 4.57515 0 5.58936V10.4106C0 11.4248 0.96668 12.2499 2.15492 12.2499H4.18324L10.7303 15.7485C11.0427 15.9154 11.3634 16 11.6639 16C11.8777 16 12.0813 15.9572 12.2644 15.8706C12.7046 15.6626 12.9571 15.2344 12.9571 14.6961V1.3039C12.9571 0.765532 12.7046 0.337429 12.2644 0.129346ZM3.76559 11.2497H2.15492C1.61285 11.2497 1.17187 10.8733 1.17187 10.4106V5.58936C1.17187 5.12668 1.61285 4.75029 2.15492 4.75029H3.76559V11.2497ZM11.7852 14.6961C11.7852 14.9079 11.7143 14.9873 11.6967 14.9956C11.6791 15.0038 11.5627 15.0131 11.3522 14.9007L4.93746 11.4728V4.52714L11.3522 1.09925C11.5627 0.986752 11.6791 0.996121 11.6967 1.00436C11.7142 1.01266 11.7852 1.09204 11.7852 1.30386V14.6961Z" fill="white"/>
</svg>