<svg xmlns="http://www.w3.org/2000/svg" width="16" height="16" viewBox="0 0 16 16" fill="none">
  <path d="M5.14892 9.41282L7.37977 7.7397V4.33151C7.37977 3.98882 7.65677 3.71182 7.99945 3.71182C8.34214 3.71182 8.61914 3.98882 8.61914 4.33151V8.04957C8.61914 8.24476 8.52742 8.42882 8.37127 8.54532L5.89258 10.4044C5.78105 10.488 5.65089 10.5283 5.52139 10.5283C5.33239 10.5283 5.14648 10.4434 5.02502 10.2798C4.81923 10.0065 4.87502 9.61795 5.14892 9.41282Z" fill="white"/>
  <path d="M8 0C12.4115 0 16 3.58853 16 8C16 12.4115 12.4115 16 8 16C3.58853 16 0 12.4115 0 8C0 3.58853 3.58853 0 8 0ZM8 14.7607C11.7273 14.7607 14.7607 11.7273 14.7607 8C14.7607 4.27266 11.7273 1.23934 8 1.23934C4.27203 1.23934 1.23934 4.27266 1.23934 8C1.23934 11.7273 4.27266 14.7607 8 14.7607Z" fill="white"/>
</svg>